<?xml version="1.0" standalone="no"?>
<!DOCTYPE svg PUBLIC "-//W3C//DTD SVG 20010904//EN"
 "http://www.w3.org/TR/2001/REC-SVG-20010904/DTD/svg10.dtd">
<svg version="1.0" xmlns="http://www.w3.org/2000/svg"
 width="1161.000000pt" height="1280.000000pt" viewBox="0 0 1161.000000 1280.000000"
 preserveAspectRatio="xMidYMid meet">
<g transform="translate(0.000000,1280.000000) scale(0.100000,-0.100000)"
fill="#000000" stroke="none">
<path d="M7497 12775 c-127 -37 -203 -98 -260 -211 -46 -90 -46 -94 -147 -834
-16 -118 -59 -430 -95 -692 -36 -262 -65 -498 -65 -525 0 -74 26 -137 77 -188
79 -80 113 -93 300 -121 92 -14 172 -29 178 -34 14 -12 -25 -494 -41 -510 -8
-8 -152 0 -525 30 -283 22 -629 50 -769 61 -140 11 -309 24 -375 29 -147 13
-739 59 -1255 99 -212 17 -400 33 -419 35 -18 3 -162 -15 -320 -39 -157 -24
-392 -59 -521 -79 -129 -20 -444 -67 -700 -106 -256 -39 -584 -89 -730 -111
-146 -22 -411 -62 -590 -89 -179 -27 -476 -72 -660 -100 -506 -76 -533 -81
-557 -92 -22 -11 -23 -17 -23 -128 l0 -118 28 -11 c15 -6 149 -24 297 -41 673
-74 901 -102 909 -110 6 -6 -5 -40 -27 -87 -60 -128 -77 -219 -87 -458 -6
-159 -20 -303 -59 -595 -28 -212 -78 -590 -111 -840 -33 -250 -78 -592 -100
-759 -22 -167 -81 -612 -130 -990 -49 -377 -108 -823 -130 -990 -22 -167 -81
-612 -130 -990 -49 -377 -108 -822 -130 -989 l-40 -303 -45 -59 c-111 -144
-114 -250 -8 -293 60 -24 141 -30 232 -17 147 20 197 61 189 156 -4 52 -30
100 -99 185 l-21 26 41 229 c22 126 65 373 95 549 31 176 119 687 196 1135
149 865 252 1460 380 2200 100 583 239 1387 334 1938 42 239 80 470 86 515 16
120 45 201 89 248 41 42 173 109 216 109 14 0 106 -9 203 -20 729 -82 877
-100 888 -112 6 -7 260 -375 564 -818 l553 -805 5 -94 5 -94 76 -34 c60 -28
88 -49 135 -100 66 -72 131 -114 249 -158 64 -24 82 -35 88 -55 4 -14 168
-1393 365 -3066 l357 -3041 -48 -59 c-90 -110 -110 -203 -58 -264 30 -37 50
-46 153 -71 93 -23 146 -24 218 -3 81 23 109 40 127 74 34 65 8 154 -78 263
-53 68 -46 28 -82 507 -14 184 -30 389 -35 455 -10 118 -102 1304 -160 2055
-16 212 -43 558 -60 770 -28 365 -163 2101 -177 2278 -5 74 -4 82 12 82 9 0
128 -22 264 -49 532 -107 1138 -178 1656 -194 l70 -2 -1 -85 c-1 -71 -26 -419
-74 -1060 -9 -130 -47 -659 -54 -766 -2 -43 -16 -90 -46 -159 -52 -122 -58
-156 -35 -191 31 -47 75 -58 240 -59 164 0 211 10 258 53 45 43 38 91 -28 198
-31 49 -67 112 -80 140 l-25 51 85 609 c46 335 104 753 129 929 36 260 48 321
62 332 12 9 52 13 122 13 111 0 409 22 601 44 l117 14 747 446 c410 245 751
446 756 446 5 0 12 -4 15 -8 14 -22 1056 -3650 1056 -3675 0 -17 -14 -73 -32
-126 -22 -67 -32 -116 -32 -164 -1 -66 0 -69 36 -102 48 -45 91 -55 227 -55
145 0 219 19 261 67 16 18 32 44 36 57 7 30 -38 131 -110 241 -83 127 -89 144
-139 355 -26 107 -89 380 -142 605 -53 226 -154 658 -225 960 -479 2041 -447
1905 -465 2021 -15 98 -13 119 10 128 7 2 26 26 41 51 64 110 48 238 -42 344
l-35 41 60 597 c57 559 108 1054 130 1272 6 51 13 96 16 99 3 3 45 6 93 7 123
1 182 23 253 95 81 81 88 110 165 675 35 264 78 578 94 698 17 119 43 317 60
440 16 122 34 244 40 270 5 26 10 87 10 135 -1 214 -115 365 -317 417 -47 12
-77 13 -167 5 -1054 -100 -2154 -67 -3104 91 -103 17 -195 35 -204 40 -23 12
-42 10 -131 -16z m777 -2700 c570 -70 1119 -115 1640 -135 143 -5 264 -14 269
-19 7 -7 4 -66 -6 -168 -9 -87 -32 -315 -52 -508 -20 -192 -53 -523 -75 -735
-21 -212 -42 -431 -46 -488 -4 -56 -9 -104 -13 -106 -9 -6 -257 -34 -401 -46
-481 -40 -845 -40 -1230 0 -146 16 -470 69 -500 83 -24 12 -25 16 -28 117 -4
129 64 955 81 989 11 21 50 34 383 121 204 53 376 100 382 104 15 9 17 252 3
261 -9 5 -389 38 -603 52 -53 3 -102 9 -109 14 -10 6 -9 53 5 231 10 123 20
231 22 241 7 23 34 22 278 -8z m-915 -1485 c-16 -179 -29 -363 -28 -410 0 -47
1 -90 0 -96 -1 -7 -40 -14 -103 -18 -74 -5 -128 -16 -202 -41 -214 -71 -415
-112 -966 -195 -184 -28 -441 -67 -570 -87 -129 -21 -255 -37 -280 -38 l-45 0
-6 65 c-4 36 -7 135 -8 220 -2 168 -11 265 -38 378 -10 44 -13 76 -7 81 5 4
74 1 154 -8 l144 -17 796 208 c437 114 878 230 980 257 138 36 188 46 197 37
9 -8 5 -87 -18 -336z m-3062 -67 c141 -60 190 -107 227 -218 9 -28 34 -201 56
-385 31 -264 37 -337 27 -346 -6 -6 -47 -23 -89 -37 -71 -23 -78 -24 -91 -9
-50 60 -728 1065 -724 1075 4 10 60 7 258 -15 236 -27 258 -31 336 -65z"/>
</g>
</svg>
